<?xml version="1.0" encoding="UTF-8"?>
<svg id="Layer_1" data-name="Layer 1" xmlns="http://www.w3.org/2000/svg" viewBox="0 0 1363.15 1363.15">
  <defs>
    <style>
      .cls-1 {
        fill: #fffef9;
      }

      .cls-1, .cls-2 {
        stroke-width: 0px;
      }

      .cls-2 {
        fill: #2b2c69;
      }
    </style>
  </defs>
  <circle class="cls-2" cx="681.58" cy="681.58" r="681.58"/>
  <g>
    <path class="cls-1" d="M191.8,779.03v-20.66c7.53,0,12.86-1.62,15.98-4.87,3.12-3.25,5.07-7.86,5.85-13.84.78-5.98,1.17-12.73,1.17-20.27v-73.28c0-4.68.13-9.61.39-14.81.26-5.2.65-10.52,1.17-15.98-4.42.26-9.23.52-14.42.78-5.2.26-9.49.52-12.86.78v-25.34c11.69,0,21.3-.58,28.84-1.75,7.54-1.17,13.38-2.66,17.54-4.48,4.15-1.81,7.14-3.51,8.96-5.07h16.37c.52,2.6.84,5.79.97,9.55.13,3.77.32,7.21.58,10.33,8.58-6.75,17.93-12.14,28.07-16.18,10.13-4.03,20.01-6.04,29.62-6.04,12.21,0,22.41,2.21,30.6,6.63,8.18,4.42,14.62,10.79,19.29,19.1,9.09-7.53,19.36-13.7,30.79-18.52,11.43-4.81,22.47-7.21,33.13-7.21,21.57,0,37.74,6.3,48.53,18.91,10.78,12.61,16.04,33.98,15.79,64.12v62.37c0,4.16-.13,9.16-.39,15.01-.26,5.85-.65,11.5-1.17,16.96,4.16-.52,8.58-.84,13.25-.97,4.68-.13,8.58-.19,11.69-.19v24.95h-92.38v-20.66c6.75,0,11.56-1.62,14.42-4.87,2.86-3.25,4.61-7.86,5.26-13.84.65-5.98.97-12.73.97-20.27v-58.08c0-18.71-2.99-32.09-8.96-40.15-5.98-8.05-14.42-12.08-25.34-12.08-7.28-.26-14.23,1.11-20.85,4.09-6.63,2.99-12.41,6.57-17.35,10.72,1.3,4.94,2.2,10.27,2.73,15.98.52,5.72.78,11.83.78,18.32v32.55c0,10.79-.13,21.63-.39,32.55,0,4.16-.07,9.16-.19,15.01-.13,5.85-.58,11.5-1.37,16.96,4.16-.52,8.58-.84,13.25-.97,4.68-.13,8.7-.19,12.08-.19v24.95h-93.55v-20.66c7.02,0,12.02-1.62,15.01-4.87,2.99-3.25,4.87-7.86,5.65-13.84.78-5.98,1.17-12.73,1.17-20.27v-58.86c0-18.71-2.79-32.02-8.38-39.95-5.59-7.92-13.84-12.02-24.75-12.28-7.02,0-13.71,1.56-20.08,4.68-6.37,3.12-11.89,6.89-16.57,11.3v99.01c0,4.16-.07,9.16-.2,15.01-.13,5.85-.58,11.5-1.36,16.96,4.15-.52,8.38-.84,12.67-.97,4.29-.13,7.99-.19,11.11-.19v24.95h-93.16Z"/>
    <path class="cls-1" d="M649.03,779.03c-.78-3.9-1.24-7.21-1.36-9.94-.13-2.73-.33-5.91-.58-9.55-8.84,8.84-18.26,15.34-28.26,19.49-10.01,4.15-20.34,6.24-30.99,6.24-17.67,0-31.25-4.81-40.73-14.42-9.49-9.61-14.23-21.44-14.23-35.47,0-12.47,3.37-23.06,10.13-31.77,6.75-8.7,15.59-15.85,26.51-21.44,10.92-5.58,23-9.87,36.25-12.86,13.25-2.98,26.37-4.61,39.37-4.87v-21.44c0-7.54-.85-14.48-2.54-20.85-1.69-6.36-4.74-11.43-9.16-15.2-4.42-3.77-10.91-5.65-19.49-5.65-5.72.26-11.5,1.5-17.35,3.7-5.85,2.21-10.46,5.65-13.84,10.33,2.08,2.34,3.37,4.87,3.9,7.6.52,2.73.78,5.13.78,7.21,0,4.68-1.82,9.55-5.46,14.62-3.64,5.07-9.49,7.47-17.54,7.21-7.02-.26-12.41-2.73-16.18-7.41-3.77-4.68-5.65-10.26-5.65-16.76,0-9.87,3.57-18.52,10.72-25.92,7.15-7.41,16.82-13.25,29.04-17.54,12.21-4.29,25.86-6.43,40.93-6.43,22.35,0,39.5,5.85,51.45,17.54,11.95,11.69,17.8,30.4,17.54,56.13v24.75c0,7.41-.07,14.81-.2,22.22-.13,7.41-.19,15.66-.19,24.75,0,3.9-.13,8.77-.39,14.62-.26,5.85-.65,11.63-1.17,17.35,4.68-.52,9.41-.84,14.23-.97,4.81-.13,8.77-.32,11.89-.58v25.34h-67.44ZM644.74,687.42c-7.79.52-15.46,1.75-23,3.7-7.54,1.95-14.29,4.62-20.27,7.99-5.98,3.38-10.72,7.6-14.23,12.67-3.51,5.07-5.13,10.85-4.87,17.35.26,8.06,2.86,13.97,7.8,17.74,4.93,3.77,10.65,5.65,17.15,5.65,7.53,0,14.36-1.56,20.46-4.68,6.1-3.12,11.75-7.27,16.95-12.47v-47.95Z"/>
    <path class="cls-1" d="M798.71,780.2l-59.64-132.53c-3.12-7.53-5.46-13.64-7.02-18.32-1.56-4.68-2.67-8.58-3.31-11.69-.65-3.12-1.24-6.24-1.75-9.36l-15.2.78v-24.95h84.59v20.66c-6.24,0-10.33,1.63-12.28,4.87-1.95,3.25-2.47,7.54-1.56,12.86.91,5.33,2.53,10.98,4.87,16.96l23.39,56.13c2.08,4.68,4.16,9.55,6.24,14.62,2.08,5.07,4.03,10.2,5.85,15.4h.39c1.82-4.93,3.7-9.94,5.65-15.01,1.95-5.07,3.7-10.2,5.26-15.4l21.44-60.03c2.34-6.49,4.54-11.82,6.63-15.98,2.08-4.15,4.03-7.92,5.85-11.3l-24.17,1.17v-24.95h69.77v20.66c-5.98.52-11.17,3.31-15.59,8.38-4.42,5.07-8.32,11.18-11.69,18.32-3.38,7.15-6.5,14.49-9.36,22.02l-50.28,126.68h-28.07Z"/>
    <path class="cls-1" d="M1010.76,785.26c-18.71,0-35.34-4.23-49.9-12.67-14.55-8.44-25.86-20.4-33.91-35.86-8.06-15.46-12.08-33.72-12.08-54.77,0-18.19,4.03-35.21,12.08-51.06,8.05-15.85,19.42-28.65,34.11-38.39,14.68-9.75,31.77-14.62,51.26-14.62,10.92,0,21.44,1.56,31.57,4.68,10.13,3.12,19.23,8.32,27.29,15.59,8.05,7.28,14.49,16.9,19.3,28.85,4.8,11.96,7.08,26.51,6.82,43.66l-130.97,2.34c0,16.12,1.88,30.34,5.65,42.68,3.76,12.35,9.94,22.09,18.51,29.24,8.58,7.15,19.88,10.72,33.91,10.72,6.24,0,12.92-1.1,20.08-3.31,7.14-2.2,14.23-5.58,21.25-10.13,7.02-4.54,13.25-10.2,18.71-16.96l14.81,13.64c-8.58,12.47-18.06,22.09-28.45,28.85-10.4,6.76-20.79,11.37-31.18,13.84-10.4,2.47-20.01,3.7-28.84,3.7ZM968.28,649.61h81.08c-.26-10.39-1.75-19.16-4.48-26.31-2.73-7.14-6.69-12.6-11.89-16.37-5.2-3.77-11.57-5.65-19.1-5.65-12.74,0-22.94,4.23-30.6,12.67-7.67,8.45-12.67,20.34-15.01,35.67Z"/>
    <path class="cls-1" d="M1147.97,785.26c-7.54,0-13.84-2.8-18.91-8.38-5.07-5.58-7.6-12.28-7.6-20.07s2.66-14.87,7.99-20.46c5.32-5.59,11.5-8.38,18.52-8.38,7.53,0,13.77,2.79,18.71,8.38,4.93,5.59,7.41,12.41,7.41,20.46s-2.47,14.49-7.41,20.07c-4.94,5.58-11.18,8.38-18.71,8.38Z"/>
  </g>
</svg>