<?xml version="1.0" encoding="UTF-8"?>
<svg id="Layer_1" xmlns="http://www.w3.org/2000/svg" viewBox="0 0 1019.95 1019.95">
  <defs>
    <style>
      .cls-1 {
        fill: #fffef9;
      }

      .cls-2 {
        fill: #2a2d69;
      }
    </style>
  </defs>
  <circle class="cls-2" cx="509.98" cy="509.98" r="509.98"/>
  <g>
    <path class="cls-1" d="M219.66,676.5v-32.41c11.82,0,20.18-2.54,25.07-7.64,4.89-5.09,7.95-12.33,9.17-21.71,1.22-9.38,1.83-19.97,1.83-31.8v-114.98c0-7.34.2-15.08.61-23.24.4-8.15,1.01-16.51,1.83-25.07-6.94.41-14.48.82-22.63,1.22-8.16.41-14.89.82-20.18,1.22v-39.75c18.35,0,33.43-.92,45.26-2.75,11.82-1.83,20.99-4.18,27.52-7.03,6.52-2.85,11.21-5.5,14.07-7.95h25.69c.81,4.08,1.32,9.08,1.53,14.98.2,5.92.51,11.31.92,16.21,13.45-10.6,28.13-19.05,44.03-25.38,15.9-6.32,31.39-9.48,46.48-9.48,19.16,0,35.17,3.47,48.01,10.4,12.84,6.94,22.93,16.92,30.27,29.97,14.27-11.82,30.37-21.5,48.31-29.05,17.94-7.54,35.26-11.31,51.98-11.31,33.84,0,59.22,9.89,76.14,29.66,16.91,19.78,25.17,53.31,24.77,100.61v97.85c0,6.53-.21,14.37-.61,23.55-.41,9.17-1.02,18.04-1.83,26.6,6.52-.81,13.46-1.32,20.79-1.53,7.34-.2,13.46-.31,18.35-.31v39.14h-144.95v-32.41c10.6,0,18.14-2.54,22.63-7.64,4.48-5.09,7.23-12.33,8.26-21.71,1.01-9.38,1.53-19.97,1.53-31.8v-91.13c0-29.36-4.69-50.35-14.07-62.99-9.38-12.63-22.63-18.96-39.75-18.96-11.42-.4-22.32,1.74-32.72,6.42-10.4,4.69-19.48,10.3-27.22,16.82,2.04,7.75,3.46,16.11,4.28,25.08.81,8.97,1.22,18.56,1.22,28.74v51.07c0,16.92-.21,33.94-.61,51.07,0,6.53-.11,14.37-.31,23.55-.21,9.17-.92,18.04-2.14,26.6,6.52-.81,13.46-1.32,20.79-1.53,7.34-.2,13.66-.31,18.96-.31v39.14h-146.78v-32.41c11.01,0,18.85-2.54,23.55-7.64,4.68-5.09,7.65-12.33,8.87-21.71,1.22-9.38,1.83-19.97,1.83-31.8v-92.35c0-29.36-4.39-50.25-13.15-62.69-8.77-12.43-21.71-18.85-38.84-19.27-11.01,0-21.51,2.45-31.5,7.34-10,4.89-18.65,10.81-25.99,17.74v155.34c0,6.53-.1,14.37-.31,23.55-.21,9.17-.92,18.04-2.14,26.6,6.52-.81,13.15-1.32,19.88-1.53,6.73-.2,12.54-.31,17.43-.31v39.14h-146.17Z"/>
    <path class="cls-1" d="M808.61,686.28c-11.83,0-21.71-4.39-29.66-13.15-7.95-8.76-11.93-19.27-11.93-31.5s4.18-23.34,12.54-32.11c8.35-8.76,18.04-13.15,29.05-13.15,11.82,0,21.61,4.39,29.36,13.15,7.74,8.77,11.62,19.48,11.62,32.11s-3.88,22.73-11.62,31.5c-7.75,8.76-17.54,13.15-29.36,13.15Z"/>
  </g>
</svg>